<?xml version="1.0" standalone="no"?>
<!DOCTYPE svg PUBLIC "-//W3C//DTD SVG 20010904//EN"
 "http://www.w3.org/TR/2001/REC-SVG-20010904/DTD/svg10.dtd">
<svg version="1.0" xmlns="http://www.w3.org/2000/svg"
 width="68.000000pt" height="46.000000pt" viewBox="0 0 68.000000 46.000000"
 preserveAspectRatio="xMidYMid meet">

<g transform="translate(0.000000,46.000000) scale(0.100000,-0.100000)"
fill="#000000" stroke="none">
<path d="M520 440 c-9 -7 -57 -8 -128 -4 -99 6 -115 4 -132 -11 -17 -15 -25
-16 -64 -6 -54 13 -66 14 -66 2 0 -5 21 -14 46 -20 l47 -12 -29 -30 c-23 -24
-26 -33 -18 -47 17 -27 60 -26 97 2 19 14 44 26 55 26 22 0 252 -137 252 -150
0 -4 -7 -13 -15 -20 -12 -10 -27 -5 -80 25 -79 44 -111 41 -40 -3 28 -17 54
-33 59 -35 15 -5 -2 -37 -19 -37 -8 0 -34 12 -56 26 -43 27 -70 23 -31 -5 68
-48 67 -48 53 -65 -12 -15 -18 -13 -66 14 -30 17 -56 26 -59 21 -3 -5 10 -19
30 -30 33 -20 41 -40 18 -48 -18 -6 -74 37 -74 57 0 11 -7 23 -15 26 -8 4 -15
14 -15 24 0 10 -6 23 -14 30 -8 6 -16 21 -18 33 -2 15 -11 23 -28 25 -14 2
-35 8 -48 14 -17 9 -28 8 -48 -3 -25 -13 -27 -12 -54 21 -16 19 -32 32 -36 27
-4 -4 7 -24 23 -45 22 -27 29 -43 23 -53 -6 -9 -4 -22 6 -37 8 -12 12 -27 9
-32 -11 -18 15 -50 40 -50 13 0 27 -4 30 -10 3 -5 15 -10 26 -10 10 0 19 -4
19 -10 0 -19 50 -23 69 -6 18 16 21 16 52 -3 39 -24 77 -27 85 -7 3 8 19 16
35 20 19 4 33 14 39 31 5 14 16 25 24 25 8 0 17 9 21 19 3 11 16 21 28 23 14
2 29 17 40 40 10 21 32 47 48 59 29 20 38 39 19 39 -5 0 -24 -13 -43 -30 l-34
-29 -114 71 c-63 39 -125 71 -139 71 -14 0 -44 -12 -67 -27 -26 -18 -49 -26
-60 -22 -14 6 -8 15 32 56 l49 50 111 -6 c92 -6 116 -4 143 10 18 9 32 19 32
21 0 9 -35 5 -50 -5z m-370 -232 c0 -16 -31 -48 -47 -48 -19 0 -16 21 8 47 22
22 39 23 39 1z m70 -10 c0 -14 -89 -108 -102 -108 -21 0 -4 39 34 77 42 43 68
54 68 31z m30 -55 c-1 -12 -59 -73 -69 -73 -22 0 -20 20 5 49 23 28 64 43 64
24z m30 -53 c0 -5 -9 -19 -21 -31 -29 -29 -51 -9 -24 21 19 21 45 27 45 10z"/>
</g>
</svg>
